<?xml version="1.0" encoding="utf-8"?>
<!-- Generator: Adobe Illustrator 19.0.1, SVG Export Plug-In . SVG Version: 6.00 Build 0)  -->
<svg version="1.1" id="Layer_1" xmlns="http://www.w3.org/2000/svg" xmlns:xlink="http://www.w3.org/1999/xlink" x="0px" y="0px"
	 viewBox="0 0 22 32" style="enable-background:new 0 0 22 32;" xml:space="preserve">
<style type="text/css">
	.st0{fill:#353535;}
</style>
<g id="bulb">
	<g>
		<path class="st0" d="M11,0C4.9,0,0,4.9,0,11c0,4,3.7,8.3,5,12.1c2,5.6,1.8,8.9,6,8.9c4.3,0,4-3.3,6-8.9c1.3-3.8,5-8.1,5-12.1
			C22,4.9,17.1,0,11,0z M11,30c-1,0-1.5-0.1-2-1.3l4.2-0.5C12.6,29.9,12.2,30,11,30z M14,26c-0.1,0.4-0.2,0.8-0.4,1.2l-5,0.6
			c-0.2-0.5-0.4-1.1-0.6-1.9c0,0,0,0,0,0l6.2-0.8C14.1,25.4,14,25.7,14,26z M14.5,24.1l-6.8,0.8c-0.2-0.6-0.4-1.2-0.6-1.9h7.8
			C14.8,23.4,14.6,23.7,14.5,24.1z M15.7,21H6.3c-0.5-1.1-1.1-2.2-1.7-3.2C3.3,15.4,2,13,2,11c0-5,4-9,9-9s9,4,9,9
			c0,2-1.3,4.4-2.7,6.8C16.8,18.8,16.2,19.9,15.7,21z M11,5c-3.3,0-6,2.7-6,6c0,0.3,0.2,0.5,0.5,0.5S6,11.3,6,11c0-2.8,2.2-5,5-5
			c0.3,0,0.5-0.2,0.5-0.5S11.3,5,11,5z"/>
	</g>
</g>
</svg>
