<?xml version="1.0" encoding="utf-8"?>
<!-- Generator: Adobe Illustrator 19.0.1, SVG Export Plug-In . SVG Version: 6.00 Build 0)  -->
<svg version="1.1" id="Layer_1" xmlns="http://www.w3.org/2000/svg" xmlns:xlink="http://www.w3.org/1999/xlink" x="0px" y="0px"
	 viewBox="0 0 32 27" style="enable-background:new 0 0 32 27;" xml:space="preserve">
<style type="text/css">
	.st0{fill:#353535;}
</style>
<g id="camera">
	<g>
		<path class="st0" d="M16,7c-4.4,0-8,3.6-8,8c0,4.4,3.6,8,8,8c4.4,0,8-3.6,8-8C24,10.6,20.4,7,16,7z M20.6,18.9
			c-2.2,2.5-5.9,2.8-8.5,0.7c-2.5-2.2-2.8-5.9-0.7-8.5c2.2-2.5,5.9-2.8,8.5-0.7C22.4,12.6,22.7,16.4,20.6,18.9z M16,11
			c-2.2,0-4,1.8-4,4v0c0,0.3,0.2,0.5,0.5,0.5c0.3,0,0.5-0.2,0.5-0.5v0c0-1.7,1.3-3,3-3c0.3,0,0.5-0.2,0.5-0.5S16.3,11,16,11z
			 M29.5,6l-4.3-0.7l-1.4-3.4C23.3,0.7,22.2,0,21,0H11C9.8,0,8.7,0.7,8.2,1.9L6.8,5.3L2.5,6C1.1,6.3,0,7.5,0,9v15c0,1.7,1.3,3,3,3
			h26c1.7,0,3-1.3,3-3V9C32,7.5,30.9,6.3,29.5,6z M30,24c0,0.6-0.4,1-1,1H3c-0.6,0-1-0.4-1-1V9c0-0.5,0.4-0.9,0.8-1l5.4-0.9l1.8-4.5
			C10.2,2.2,10.6,2,11,2h10c0.4,0,0.8,0.2,0.9,0.6l1.8,4.5L29.2,8C29.6,8.1,30,8.5,30,9V24z"/>
	</g>
</g>
</svg>
