<?xml version="1.0" encoding="utf-8"?>
<!-- Generator: Adobe Illustrator 19.0.1, SVG Export Plug-In . SVG Version: 6.00 Build 0)  -->
<svg version="1.1" id="Layer_1" xmlns="http://www.w3.org/2000/svg" xmlns:xlink="http://www.w3.org/1999/xlink" x="0px" y="0px"
	 viewBox="0 0 32 29" style="enable-background:new 0 0 32 29;" xml:space="preserve">
<style type="text/css">
	.st0{fill-rule:evenodd;clip-rule:evenodd;fill:#353535;}
</style>
<g id="clip">
	<g>
		<path class="st0" d="M29.4,2.6c-3.5-3.5-9.2-3.5-12.7,0L2,17c-2.7,2.7-2.7,7.2,0,9.9c2.7,2.7,7.2,2.7,9.9,0l14.6-14.4
			c2-2,2-5.1,0-7.1c-2-2-5.1-2-7.1,0l-11,11c-0.4,0.4-0.4,1,0,1.4c0.4,0.4,1,0.4,1.4,0l11-11c1.2-1.2,3.1-1.2,4.2,0
			c1.2,1.2,1.2,3.1,0,4.2L10.5,25.5c-2,2-5.1,2-7.1,0c-2-2-2-5.1,0-7.1L17.9,4.2c2.7-2.7,7.2-2.7,9.9,0c2.7,2.7,2.7,7.2,0,9.9
			L17,24.9c-0.4,0.4-0.4,1,0,1.4c0.4,0.4,1,0.4,1.4,0l11-11C32.9,11.8,32.9,6.1,29.4,2.6z"/>
	</g>
</g>
</svg>
