<?xml version="1.0" encoding="utf-8"?>
<!-- Generator: Adobe Illustrator 19.0.1, SVG Export Plug-In . SVG Version: 6.00 Build 0)  -->
<svg version="1.1" id="Layer_1" xmlns="http://www.w3.org/2000/svg" xmlns:xlink="http://www.w3.org/1999/xlink" x="0px" y="0px"
	 viewBox="0 0 22 32" style="enable-background:new 0 0 22 32;" xml:space="preserve">
<style type="text/css">
	.st0{fill:#353535;}
</style>
<g id="clock">
	<g>
		<path class="st0" d="M10,11c0.6,0,1-0.4,1-1s-0.4-1-1-1c-0.6,0-1,0.4-1,1S9.4,11,10,11z M10,21c-0.6,0-1,0.4-1,1s0.4,1,1,1
			c0.6,0,1-0.4,1-1S10.6,21,10,21z M4,15c-0.6,0-1,0.4-1,1s0.4,1,1,1c0.6,0,1-0.4,1-1S4.6,15,4,15z M15,16c0,0.6,0.4,1,1,1
			c0.6,0,1-0.4,1-1s-0.4-1-1-1C15.4,15,15,15.4,15,16z M5.1,19.5c-0.4,0.4-0.4,1,0,1.4c0.4,0.4,1,0.4,1.4,0c0.4-0.4,0.4-1,0-1.4
			C6.1,19.1,5.4,19.1,5.1,19.5z M5.1,11.1c-0.4,0.4-0.4,1,0,1.4c0.4,0.4,1,0.4,1.4,0c0.4-0.4,0.4-1,0-1.4
			C6.1,10.7,5.4,10.7,5.1,11.1z M13.5,19.5c-0.4,0.4-0.4,1,0,1.4c0.4,0.4,1,0.4,1.4,0c0.4-0.4,0.4-1,0-1.4
			C14.6,19.1,13.9,19.1,13.5,19.5z M20,14c-0.1,0-0.1,0-0.2,0c-0.3-1.7-1.2-3.3-2.3-4.6l-1.4-7.8c-0.2-0.9-1-1.6-2-1.6h-8
			c-1,0-1.8,0.7-2,1.6L2.7,9.2C1.1,11,0,13.4,0,16c0,2.6,1,4.9,2.6,6.7L4,30.4C4.2,31.3,5,32,6,32h8c1,0,1.8-0.7,2-1.6l1.4-7.7
			c1.2-1.3,2.1-2.9,2.4-4.7c0.1,0,0.1,0,0.2,0c1.1,0,2-0.9,2-2C22,14.9,21.1,14,20,14z M6.1,2h8l1,5.4c-1.5-0.9-3.2-1.4-5-1.4
			c-1.8,0-3.5,0.5-5,1.4L6.1,2z M14,30H6l-1-5.4c1.5,0.9,3.2,1.4,5,1.4s3.5-0.5,5-1.4L14,30z M10,24c-4.4,0-8-3.6-8-8
			c0-4.4,3.6-8,8-8c4.4,0,8,3.6,8,8C18,20.4,14.4,24,10,24z M14.9,11c-0.1-0.1-0.3-0.1-0.5,0l-5.2,4.3C9.1,15.5,9,15.7,9,16
			c0,0.3,0.1,0.5,0.3,0.7C9.5,16.9,9.7,17,10,17c0.3,0,0.5-0.1,0.7-0.3l1.8-2.2l2.4-3C15.1,11.3,15.1,11.1,14.9,11z"/>
	</g>
</g>
</svg>
