<?xml version="1.0" encoding="utf-8"?>
<!-- Generator: Adobe Illustrator 19.0.1, SVG Export Plug-In . SVG Version: 6.00 Build 0)  -->
<svg version="1.1" id="Layer_1" xmlns="http://www.w3.org/2000/svg" xmlns:xlink="http://www.w3.org/1999/xlink" x="0px" y="0px"
	 viewBox="0 0 32 23" style="enable-background:new 0 0 32 23;" xml:space="preserve">
<style type="text/css">
	.st0{fill-rule:evenodd;clip-rule:evenodd;fill:#353535;}
</style>
<g id="cloud">
	<g>
		<path class="st0" d="M25.9,8.1C25.5,3.6,21.7,0,17,0c-3.6,0-6.7,2.1-8.1,5.2C8.4,5.1,8,5,7.5,5C5,5,3,7,3,9.5c0,0.5,0.1,1,0.2,1.4
			C1.3,12,0,14.1,0,16.5C0,20.1,2.9,23,6.5,23v0h18v0c4.1,0,7.5-3.4,7.5-7.5C32,11.8,29.4,8.8,25.9,8.1z M24.5,21L24.5,21l-18,0
			C4,21,2,19,2,16.5c0-1.6,0.8-3,2.3-3.9c1.4-0.8,1.5-0.9,0.9-2.4C5,10,5,9.7,5,9.5C5,8.1,6.1,7,7.5,7c0,0,0.7,0,1.4,0.2
			c1.1,0.5,1.3,0,1.8-1.2C11.8,3.6,14.3,2,17,2c3.6,0,6.6,2.7,6.9,6.3c0.1,1.4,0.1,1.4,1.6,1.8c2.6,0.5,4.5,2.8,4.5,5.4
			C30,18.5,27.5,21,24.5,21z"/>
	</g>
</g>
</svg>
