<?xml version="1.0" encoding="utf-8"?>
<!-- Generator: Adobe Illustrator 19.0.1, SVG Export Plug-In . SVG Version: 6.00 Build 0)  -->
<svg version="1.1" id="Layer_1" xmlns="http://www.w3.org/2000/svg" xmlns:xlink="http://www.w3.org/1999/xlink" x="0px" y="0px"
	 viewBox="0 0 28 32" style="enable-background:new 0 0 28 32;" xml:space="preserve">
<style type="text/css">
	.st0{fill-rule:evenodd;clip-rule:evenodd;fill:#353535;}
</style>
<g id="cup">
	<g>
		<path class="st0" d="M26.1,5l-1.2-3.7C24.6,0.6,23.9,0,23,0H5C4.1,0,3.4,0.6,3.1,1.4L1.9,5C0.8,5.1,0,5.9,0,7v3c0,1.1,0.9,2,2,2h1
			c0,0.1,0,0.1,0,0.2l2,18c0.1,1,1,1.8,2,1.8h14c1,0,1.9-0.8,2-1.8l2-18c0-0.1,0-0.1,0-0.2h1c1.1,0,2-0.9,2-2V7
			C28,5.9,27.2,5.1,26.1,5z M5,2h18l1,3H4L5,2z M21,30H7l-0.3-3h14.7L21,30z M21.4,26H6.6L5.4,16h17.1L21.4,26z M22.7,15H5.3L5,12
			h18L22.7,15z M26,10H2V7h24V10z"/>
	</g>
</g>
</svg>
