<?xml version="1.0" encoding="utf-8"?>
<!-- Generator: Adobe Illustrator 19.0.1, SVG Export Plug-In . SVG Version: 6.00 Build 0)  -->
<svg version="1.1" id="Layer_1" xmlns="http://www.w3.org/2000/svg" xmlns:xlink="http://www.w3.org/1999/xlink" x="0px" y="0px"
	 viewBox="0 0 28 32" style="enable-background:new 0 0 28 32;" xml:space="preserve">
<style type="text/css">
	.st0{fill:#353535;}
</style>
<g id="data">
	<g>
		<path class="st0" d="M14,0C7.3,0,0,2,0,6.5v19C0,30,7.3,32,14,32c6.7,0,14-2,14-6.5v-19C28,2,20.7,0,14,0z M26,25.5
			C26,28,20.6,30,14,30c-6.6,0-12-2-12-4.5v-3.7C4.1,23.9,9.1,25,14,25c4.9,0,9.9-1.1,12-3.2V25.5z M26,19.5L26,19.5
			C26,19.5,26,19.5,26,19.5C26,22,20.6,24,14,24S2,22,2,19.5c0,0,0,0,0,0h0v-3.7C4.1,17.9,9.1,19,14,19c4.9,0,9.9-1.1,12-3.2V19.5z
			 M26,13.5L26,13.5C26,13.5,26,13.5,26,13.5C26,16,20.6,18,14,18S2,16,2,13.5c0,0,0,0,0,0h0v-3.4c2.6,2,7.4,2.9,12,2.9
			c4.6,0,9.4-0.9,12-2.9V13.5z M14,11C7.4,11,2,9,2,6.5C2,4,7.4,2,14,2c6.6,0,12,2,12,4.5C26,9,20.6,11,14,11z M23,27
			c0.6,0,1-0.4,1-1s-0.4-1-1-1s-1,0.4-1,1S22.4,27,23,27z M23,21c0.6,0,1-0.4,1-1c0-0.6-0.4-1-1-1s-1,0.4-1,1C22,20.6,22.4,21,23,21
			z M23,15c0.6,0,1-0.4,1-1s-0.4-1-1-1s-1,0.4-1,1S22.4,15,23,15z"/>
	</g>
</g>
</svg>
