<?xml version="1.0" encoding="utf-8"?>
<!-- Generator: Adobe Illustrator 19.0.1, SVG Export Plug-In . SVG Version: 6.00 Build 0)  -->
<svg version="1.1" id="Layer_1" xmlns="http://www.w3.org/2000/svg" xmlns:xlink="http://www.w3.org/1999/xlink" x="0px" y="0px"
	 viewBox="0 0 32 24" style="enable-background:new 0 0 32 24;" xml:space="preserve">
<style type="text/css">
	.st0{fill-rule:evenodd;clip-rule:evenodd;fill:#353535;}
</style>
<g id="diamond">
	<g>
		<path class="st0" d="M31.4,5.7l-5.1-5.1C26,0.2,25.5,0,24.9,0H7.1C6.6,0,6,0.2,5.7,0.6L0.6,5.7C0.2,6.1,0,6.6,0,7.1
			C0,7.6,0.2,8,0.5,8.4l14,14.9c0.4,0.4,0.9,0.7,1.5,0.7c0.6,0,1.1-0.2,1.5-0.7l14-14.9C31.8,8,32,7.5,32,7.1
			C32,6.6,31.8,6.1,31.4,5.7z M24.2,2l-1.9,1.6L20.7,2H24.2z M24.3,7h-4.5L22.2,5L24.3,7z M21.5,4.2L19,6.4l-2.2-1.8l2.7-2.3
			L21.5,4.2z M18.2,7h-4.4L16,5.2L18.2,7z M18.2,2L16,3.9L13.8,2H18.2z M15.2,4.5L13,6.4l-2.5-2.1l2-2L15.2,4.5z M12.2,7H7.7L9.8,5
			L12.2,7z M11.3,2L9.7,3.6L7.8,2H11.3z M6.7,2.4L9,4.3L6.3,7H2L6.7,2.4z M2.9,8h3.6l6.3,10.5L2.9,8z M7.6,8h4.9l2.5,12.3L7.6,8z
			 M13.5,8h5L16,20.5L13.5,8z M17.1,20.3L19.5,8h4.9L17.1,20.3z M19.3,18.5L25.6,8h3.6L19.3,18.5z M25.7,7L23,4.3l2.3-1.9L29.9,7
			H25.7z"/>
	</g>
</g>
</svg>
