<?xml version="1.0" encoding="utf-8"?>
<!-- Generator: Adobe Illustrator 19.0.1, SVG Export Plug-In . SVG Version: 6.00 Build 0)  -->
<svg version="1.1" id="Layer_1" xmlns="http://www.w3.org/2000/svg" xmlns:xlink="http://www.w3.org/1999/xlink" x="0px" y="0px"
	 viewBox="0 0 32 20" style="enable-background:new 0 0 32 20;" xml:space="preserve">
<style type="text/css">
	.st0{fill:#353535;}
</style>
<g id="eye">
	<g>
		<path class="st0" d="M32,9.8c0,0,0-0.1,0-0.1c0,0,0,0,0,0c0,0,0-0.1,0-0.1C29,4,22.7,0,16,0C9.3,0,3,4,0.1,9.5c0,0,0,0,0,0.1
			c0,0,0,0,0,0c0,0,0,0.1,0,0.1C0,9.8,0,9.9,0,10c0,0.1,0,0.1,0,0.2c0,0,0,0.1,0,0.1c0,0,0,0,0,0c0,0,0,0.1,0,0.1C3,16,9.3,20,16,20
			c6.7,0,13-4,15.9-9.5c0,0,0,0,0-0.1c0,0,0,0,0,0c0,0,0-0.1,0-0.1c0-0.1,0-0.1,0-0.2C32,9.9,32,9.9,32,9.8z M16,18
			c-5.6,0-11.1-3.2-13.9-8C4.9,5.2,10.4,2,16,2c5.6,0,11.1,3.2,13.9,8C27.1,14.8,21.6,18,16,18z M16,6C16,6,16,6,16,6
			c-2.2,0-4,1.8-4,4c0,0.3,0.2,0.5,0.5,0.5c0.3,0,0.5-0.2,0.5-0.5c0-1.7,1.3-3,3-3v0c0.3,0,0.5-0.2,0.5-0.5C16.5,6.2,16.3,6,16,6z
			 M16,3c-3.9,0-7,3.1-7,7c0,3.9,3.1,7,7,7c3.9,0,7-3.1,7-7C23,6.1,19.9,3,16,3z M16,16c-3.3,0-6-2.7-6-6c0-3.3,2.7-6,6-6
			c3.3,0,6,2.7,6,6C22,13.3,19.3,16,16,16z"/>
	</g>
</g>
</svg>
