<?xml version="1.0" encoding="utf-8"?>
<!-- Generator: Adobe Illustrator 19.0.1, SVG Export Plug-In . SVG Version: 6.00 Build 0)  -->
<svg version="1.1" id="Layer_1" xmlns="http://www.w3.org/2000/svg" xmlns:xlink="http://www.w3.org/1999/xlink" x="0px" y="0px"
	 viewBox="0 0 22 32" style="enable-background:new 0 0 22 32;" xml:space="preserve">
<style type="text/css">
	.st0{fill:#353535;}
</style>
<g id="fire">
	<g>
		<path class="st0" d="M17,9c-0.1,2.7-2.1,4.9-2.1,4.9C14.9,9,11,5,11,5s-0.1,3-2,5.9C7,4,1,0,1,0c3,10.9-1,14.9-1,22.9
			c0,4.7,4,9.1,10,9.1c9,0,10.7-3.3,11.6-7C22.9,19.9,21,14,17,9z M19.7,24.5C19,27.1,18.3,30,10,30c-5,0-8-3.6-8-7.1
			c0-2.7,0.5-4.9,1-7.2c0.7-2.9,1.3-6,1-10c3.1,4.3,4.2,9.9,4.2,9.9s2.9-4,3.6-5.9C12.5,11,13,15,13,19c0,0,2.7-2.2,4.6-5.5
			C19.7,17.3,20.5,21.2,19.7,24.5z M17.4,16.8l-0.8,1c-1.1,1.2-2,2.4-4.7,3.7c-0.4-1.1-0.7-2.4-0.7-4.3v-1.7l-1.5,2.4
			c-0.5,0.8-0.9,1.5-1.6,2.4c-1-2.2-1.6-3.8-2.2-5.2l-0.5-1.3l-0.5,1.5c-0.7,1.9-1.3,3.7-1.3,8.4c0,0.3,0.2,0.5,0.5,0.5
			c0.3,0,0.5-0.2,0.5-0.5c0-3.6,0.4-5.4,0.8-6.9c0.5,1.3,1.2,2.8,2,4.8l0.4,0.8l0.5-0.7c0.8-1.1,1.3-1.9,1.9-2.7
			c0.2,1.5,0.5,2.5,0.9,3.6l0.2,0.5l0.5-0.2c2.7-1.3,4-2.5,5-3.6c0.2,1.9-0.1,3.9-0.7,5.4c-0.1,0.3,0,0.5,0.3,0.7c0.1,0,0.1,0,0.2,0
			c0.2,0,0.4-0.1,0.5-0.3c0.8-1.9,1-4.7,0.6-7L17.4,16.8z"/>
	</g>
</g>
</svg>
