<?xml version="1.0" encoding="utf-8"?>
<!-- Generator: Adobe Illustrator 19.0.1, SVG Export Plug-In . SVG Version: 6.00 Build 0)  -->
<svg version="1.1" id="Layer_1" xmlns="http://www.w3.org/2000/svg" xmlns:xlink="http://www.w3.org/1999/xlink" x="0px" y="0px"
	 viewBox="0 0 32 32" style="enable-background:new 0 0 32 32;" xml:space="preserve">
<style type="text/css">
	.st0{fill:#353535;}
</style>
<g id="food">
	<g>
		<path class="st0" d="M29.5,21h-2.7c0-0.2-0.1-0.5-0.2-0.7l4.8-2.4c0.5-0.2,0.7-0.8,0.4-1.3c-0.2-0.5-0.8-0.7-1.3-0.4L26,18.4
			c-1.7-3.8-5.6-6.4-10-6.4c-5.4,0-9.9,3.9-10.8,9H2.5C1.1,21,0,22.1,0,23.5c0,0.5,0.2,1,0.5,1.3L4,28.8v0.7C4,30.9,5.1,32,6.5,32
			h19c1.4,0,2.5-1.1,2.5-2.5v-0.7l3.5-3.9c0.3-0.4,0.5-0.8,0.5-1.3C32,22.1,30.9,21,29.5,21z M25.7,20.7c0,0.1,0,0.2,0.1,0.3h-0.6
			L25.7,20.7z M16,13c4,0,7.5,2.4,9.1,5.9l-0.9,0.4C22.8,16.2,19.6,14,16,14c-4.3,0-7.9,3-8.8,7h-1C7.1,16.4,11.2,13,16,13z M16,18
			c-2,0-3.8,1.2-4.6,3h-1.1c0.8-2.3,3-4,5.6-4c2.5,0,4.6,1.5,5.5,3.6L20.8,21h-0.2C19.8,19.2,18,18,16,18z M19.4,21h-1.2
			c-0.5-0.6-1.3-1-2.2-1s-1.7,0.4-2.2,1h-1.2c0.7-1.2,2-2,3.4-2C17.5,19,18.7,19.8,19.4,21z M16,16c-3.2,0-5.8,2.1-6.7,5h-1
			c0.9-3.5,4-6,7.7-6c3.2,0,6,2,7.3,4.7l-0.9,0.4C21.3,17.7,18.9,16,16,16z M26,28v1.5c0,0.3-0.2,0.5-0.5,0.5h-19
			C6.2,30,6,29.8,6,29.5V28l-4-4.5C2,23.2,2.2,23,2.5,23h27c0.3,0,0.5,0.2,0.5,0.5L26,28z M8,11.7C8,11.7,8,11.7,8,11.7
			C8,11.7,8,11.7,8,11.7C8.1,11.9,8.2,12,8.4,12c0.3,0,0.5-0.2,0.5-0.5c0,0,0-0.1,0-0.1c0,0,0,0,0,0c-0.4-0.9,0-1.9,0.4-2.9
			c0.5-1.1,1-2.4,0.4-3.7C9.7,4.6,9.5,4.5,9.3,4.5C9,4.5,8.8,4.7,8.8,4.9c0,0.1,0,0.1,0,0.2c0,0,0,0,0,0c0,0,0,0,0,0c0,0,0,0,0,0
			C9.3,6.1,8.9,7,8.4,8C8,9.2,7.4,10.4,8,11.7C8,11.7,8,11.7,8,11.7z M20.2,11.5C20.2,11.5,20.2,11.5,20.2,11.5
			C20.2,11.6,20.2,11.6,20.2,11.5c0.1,0.2,0.3,0.3,0.5,0.3c0.3,0,0.5-0.2,0.5-0.5c0,0,0-0.1,0-0.1c0,0,0,0,0,0
			c-0.4-0.9,0-1.9,0.4-2.9c0.5-1.1,1-2.4,0.4-3.7c-0.1-0.2-0.2-0.3-0.5-0.3c-0.3,0-0.5,0.2-0.5,0.5c0,0.1,0,0.1,0,0.2c0,0,0,0,0,0
			c0,0,0,0,0,0c0,0,0,0,0,0c0.4,0.9,0,1.8-0.4,2.9C20.1,9,19.6,10.2,20.2,11.5C20.1,11.5,20.1,11.5,20.2,11.5z M15,7.2
			C15,7.2,15,7.2,15,7.2C15,7.2,15,7.2,15,7.2c0.1,0.2,0.3,0.3,0.5,0.3C15.7,7.5,16,7.3,16,7c0,0,0-0.1,0-0.1c0,0,0,0,0,0
			C15.6,6,15.9,5,16.4,4c0.5-1.1,1-2.4,0.4-3.7C16.7,0.1,16.5,0,16.3,0c-0.3,0-0.5,0.2-0.5,0.5c0,0.1,0,0.1,0,0.2c0,0,0,0,0,0
			c0,0,0,0,0,0c0,0,0,0,0,0c0.4,0.9,0,1.8-0.4,2.9C15,4.7,14.5,5.9,15,7.2C15,7.2,15,7.2,15,7.2z"/>
	</g>
</g>
</svg>
