<?xml version="1.0" encoding="utf-8"?>
<!-- Generator: Adobe Illustrator 19.0.1, SVG Export Plug-In . SVG Version: 6.00 Build 0)  -->
<svg version="1.1" id="Layer_1" xmlns="http://www.w3.org/2000/svg" xmlns:xlink="http://www.w3.org/1999/xlink" x="0px" y="0px"
	 viewBox="0 0 32 32" style="enable-background:new 0 0 32 32;" xml:space="preserve">
<style type="text/css">
	.st0{fill:#353535;}
</style>
<g id="key">
	<g>
		<path class="st0" d="M22,0c-5.5,0-10,4.5-10,10c0,1.3,0.3,2.5,0.7,3.6L0.6,25.8C0.2,26.1,0,26.5,0,27v3c0,1.1,0.9,2,2,2h3
			c0.5,0,0.9-0.2,1.2-0.6L7.7,30H10c1.1,0,2-0.9,2-2v-2h2c1.1,0,2-0.9,2-2v-2.3l2.4-2.4c1.1,0.4,2.3,0.7,3.6,0.7c5.5,0,10-4.5,10-10
			C32,4.5,27.5,0,22,0z M22,18c-1.5,0-2.9-0.4-4-1.1l-0.3,0.3l-1.1,1.1l-1.9,1.9c-0.4,0.4-0.6,0.9-0.6,1.4V24h-2c-1.1,0-2,0.9-2,2v2
			H7.7c-0.5,0-1,0.2-1.4,0.6L4.8,30L2,30l0-2.8l11.7-11.6c0,0,0,0,0,0l1.5-1.5c-0.7-1.2-1.1-2.6-1.1-4c0-4.4,3.6-8,8-8
			c4.4,0,8,3.6,8,8C30,14.4,26.4,18,22,18z M27.8,8.2c-1.1-1.6-2.5-2.9-4.1-4.1C23.5,4,23.2,4,22.9,4.1c-1.4,0.5-2.3,1.4-2.8,2.8
			C20,7,20,7.1,20,7.2c0,0.2,0.1,0.4,0.2,0.6c1.1,1.6,2.5,2.9,4.1,4.1c0.3,0.2,0.6,0.2,0.9,0.1c1.4-0.5,2.3-1.4,2.8-2.8
			C28,9,28,8.9,28,8.8C28,8.6,27.9,8.4,27.8,8.2z M24.8,11c-1.5-1.1-2.8-2.4-3.8-3.8c0.4-1.1,1.1-1.8,2.2-2.2
			c1.5,1.1,2.8,2.3,3.8,3.8C26.6,9.9,25.9,10.6,24.8,11z"/>
	</g>
</g>
</svg>
