<?xml version="1.0" encoding="utf-8"?>
<!-- Generator: Adobe Illustrator 19.0.1, SVG Export Plug-In . SVG Version: 6.00 Build 0)  -->
<svg version="1.1" id="Layer_1" xmlns="http://www.w3.org/2000/svg" xmlns:xlink="http://www.w3.org/1999/xlink" x="0px" y="0px"
	 viewBox="0 0 32 32" style="enable-background:new 0 0 32 32;" xml:space="preserve">
<style type="text/css">
	.st0{fill:#353535;}
</style>
<g id="lab">
	<g>
		<path class="st0" d="M20.7,3.7C20.2,3.3,19.6,3,18.9,3c-0.7,0-1.3,0.3-1.8,0.7l-1.4,1.4C15.3,5.6,15,6.2,15,6.9
			c0,0.5,0.1,0.9,0.4,1.3L1.8,13.7c-0.9,0.4-1.6,1.2-1.7,2.2c-0.2,1,0.1,2,0.8,2.7l12.7,12.6c0.5,0.5,1.3,0.9,2,0.9c0,0,0.1,0,0.1,0
			c0.2,0,0.4,0,0.6-0.1c1-0.2,1.8-0.9,2.2-1.8l5.3-13.4c0.4,0.3,0.9,0.4,1.4,0.4c0.7,0,1.3-0.3,1.8-0.7l1.4-1.4
			c0.5-0.5,0.7-1.1,0.7-1.8c0-0.7-0.3-1.3-0.7-1.8L20.7,3.7z M16.7,29.4c-0.1,0.3-0.4,0.5-0.7,0.6c-0.1,0-0.2,0-0.2,0
			c-0.3,0-0.5-0.1-0.7-0.3L2.3,17.1C2.1,16.9,2,16.6,2,16.2c0.1-0.3,0.3-0.6,0.6-0.7L8.8,13c4.2,1.4,8.4,0.1,12.6,4.5L16.7,29.4z
			 M27,13.6L25.6,15c-0.2,0.2-0.5,0.2-0.7,0l-1.8-1.8l-1.4,3.6l0.1-0.3c-3-3-6.1-3.4-8.8-3.7c-0.9-0.1-1.7-0.2-2.6-0.4L18.9,9
			l-1.7-1.7c-0.2-0.2-0.2-0.5,0-0.7l1.4-1.4c0.2-0.2,0.5-0.2,0.7,0l7.7,7.7C27.2,13.1,27.2,13.4,27,13.6z M16.5,21
			c1.4,0,2.5-1.1,2.5-2.5S17.9,16,16.5,16c-1.4,0-2.5,1.1-2.5,2.5S15.1,21,16.5,21z M16.5,17c0.8,0,1.5,0.7,1.5,1.5S17.3,20,16.5,20
			S15,19.3,15,18.5S15.7,17,16.5,17z M29.5,0C28.1,0,27,1.1,27,2.5S28.1,5,29.5,5S32,3.9,32,2.5S30.9,0,29.5,0z M29.5,4
			C28.7,4,28,3.3,28,2.5S28.7,1,29.5,1S31,1.7,31,2.5S30.3,4,29.5,4z M8,17c0,1.1,0.9,2,2,2c1.1,0,2-0.9,2-2c0-1.1-0.9-2-2-2
			C8.9,15,8,15.9,8,17z M10,16c0.6,0,1,0.4,1,1s-0.4,1-1,1s-1-0.4-1-1S9.4,16,10,16z M13,24c0.6,0,1-0.4,1-1s-0.4-1-1-1s-1,0.4-1,1
			S12.4,24,13,24z M29,7c-0.6,0-1,0.4-1,1s0.4,1,1,1s1-0.4,1-1S29.6,7,29,7z"/>
	</g>
</g>
</svg>
