<?xml version="1.0" encoding="utf-8"?>
<!-- Generator: Adobe Illustrator 19.0.1, SVG Export Plug-In . SVG Version: 6.00 Build 0)  -->
<svg version="1.1" id="Layer_1" xmlns="http://www.w3.org/2000/svg" xmlns:xlink="http://www.w3.org/1999/xlink" x="0px" y="0px"
	 viewBox="0 0 32 32" style="enable-background:new 0 0 32 32;" xml:space="preserve">
<style type="text/css">
	.st0{fill:#353535;}
</style>
<g id="like">
	<g>
		<path class="st0" d="M29.2,10.5c-1.2-0.3-4.2-0.3-8.5-0.4c0.2-0.9,0.3-1.8,0.3-3.3C20.9,3.2,18.3,0,16,0c-1.6,0-3,1.3-3,3
			c0,2-0.6,5.5-4,7.3c-0.2,0.1-1,0.5-1.1,0.5l0.1,0C7.5,10.3,6.7,10,6,10H3c-1.7,0-3,1.3-3,3v16c0,1.7,1.3,3,3,3h3
			c1.2,0,2.2-0.7,2.7-1.7c0,0,0,0,0,0c0.1,0,0.1,0,0.2,0.1c0,0,0,0,0,0c0.6,0.1,1.7,0.4,4.1,1c0.5,0.1,3.2,0.7,6,0.7h5.5
			c1.7,0,2.9-0.6,3.6-1.9c0,0,0.2-0.5,0.4-1.1c0.1-0.5,0.2-1.1,0-1.8c1.1-0.7,1.4-1.9,1.6-2.6c0.4-1.2,0.3-2.1,0-2.7
			c0.6-0.6,1.1-1.4,1.3-2.8c0.1-0.8,0-1.7-0.4-2.4c0.6-0.6,0.8-1.4,0.9-2.2l0-0.2c0-0.1,0-0.2,0-0.5C32,12.6,31.1,11,29.2,10.5z
			 M7,29c0,0.6-0.4,1-1,1H3c-0.6,0-1-0.4-1-1V13c0-0.6,0.4-1,1-1h3c0.6,0,1,0.4,1,1V29z M30,14.5c0,0.5-0.2,1.5-2,1.5
			c-1.5,0-2,0-2,0c-0.3,0-0.5,0.2-0.5,0.5c0,0.3,0.2,0.5,0.5,0.5c0,0,0.4,0,1.9,0s1.7,1.2,1.6,1.8c-0.1,0.7-0.5,2.2-2.2,2.2
			c-1.7,0-2.4,0-2.4,0c-0.3,0-0.5,0.2-0.5,0.5c0,0.3,0.2,0.5,0.5,0.5c0,0,1.2,0,2,0c1.7,0,1.5,1.3,1.3,2.1c-0.3,1-0.5,1.9-2.6,1.9
			c-0.7,0-1.6,0-1.6,0c-0.3,0-0.5,0.2-0.5,0.5c0,0.3,0.2,0.5,0.5,0.5c0,0,0.7,0,1.6,0c1.1,0,1.1,1,1,1.4c-0.1,0.4-0.3,0.7-0.3,0.7
			C26,29.7,25.5,30,24.5,30H19c-2.7,0-5.5-0.6-5.5-0.6c-4.2-1-4.4-1-4.6-1.1c0,0-0.8-0.1-0.8-0.9l0-13.8c0-0.5,0.3-0.9,0.8-1
			c0.1,0,0.1,0,0.2-0.1c4.6-1.9,6-6,6-9.4c0-0.5,0.4-1,1-1c1.1,0,2.9,2.1,2.9,4.7c0,2.4-0.1,2.8-0.9,5.3c10,0,9.9,0.1,10.8,0.4
			c1.1,0.3,1.2,1.2,1.2,1.5C30,14.2,30,14.2,30,14.5z M4.5,26C3.7,26,3,26.7,3,27.5C3,28.3,3.7,29,4.5,29C5.3,29,6,28.3,6,27.5
			C6,26.7,5.3,26,4.5,26z M4.5,28C4.2,28,4,27.8,4,27.5S4.2,27,4.5,27S5,27.2,5,27.5S4.8,28,4.5,28z"/>
	</g>
</g>
</svg>
