<?xml version="1.0" encoding="utf-8"?>
<!-- Generator: Adobe Illustrator 19.0.1, SVG Export Plug-In . SVG Version: 6.00 Build 0)  -->
<svg version="1.1" id="Layer_1" xmlns="http://www.w3.org/2000/svg" xmlns:xlink="http://www.w3.org/1999/xlink" x="0px" y="0px"
	 viewBox="0 0 24 32" style="enable-background:new 0 0 24 32;" xml:space="preserve">
<style type="text/css">
	.st0{fill:#353535;}
</style>
<g id="location">
	<g>
		<path class="st0" d="M12,5.7c-3.3,0-6,2.7-6,6s2.7,6,6,6c3.3,0,6-2.7,6-6S15.3,5.7,12,5.7z M12,16.7c-2.8,0-5-2.2-5-5
			c0-2.8,2.2-5,5-5c2.8,0,5,2.2,5,5C17,14.5,14.8,16.7,12,16.7z M12,0C5.4,0,0,5.3,0,12c0,7,6,14.2,10.4,19.2c0,0,0.7,0.8,1.6,0.8
			H12c0.9,0,1.6-0.8,1.6-0.8C18,26.2,24,19,24,12C24,5.3,18.6,0,12,0z M12.1,29.9c0,0-0.1,0.1-0.1,0.1c0,0-0.1-0.1-0.1-0.1
			C8.2,25.6,2,18.5,2,12C2,6.5,6.5,2,12,2c5.5,0,10,4.5,10,10C22,18.5,15.8,25.6,12.1,29.9z"/>
	</g>
</g>
</svg>
