<?xml version="1.0" encoding="utf-8"?>
<!-- Generator: Adobe Illustrator 19.0.1, SVG Export Plug-In . SVG Version: 6.00 Build 0)  -->
<svg version="1.1" id="Layer_1" xmlns="http://www.w3.org/2000/svg" xmlns:xlink="http://www.w3.org/1999/xlink" x="0px" y="0px"
	 viewBox="0 0 24 32" style="enable-background:new 0 0 24 32;" xml:space="preserve">
<style type="text/css">
	.st0{fill:#353535;}
</style>
<g id="lock">
	<g>
		<path class="st0" d="M21,13V9c0-5-4-9-9-9S3,4,3,9v4c-1.7,0-3,1.3-3,3v7c0,5,4,9,9,9h6c5,0,9-4,9-9v-7C24,14.3,22.7,13,21,13z
			 M5,9c0-3.9,3.1-7,7-7s7,3.1,7,7v4h-2V9c0-2.8-2.2-5-5-5C9.2,4,7,6.2,7,9v4H5V9z M16,9v4H8V9c0-2.2,1.8-4,4-4S16,6.8,16,9z M22,23
			c0,3.9-3.1,7-7,7H9c-3.9,0-7-3.1-7-7v-7c0-0.6,0.4-1,1-1h18c0.6,0,1,0.4,1,1V23z M12,19c-1.1,0-2,0.9-2,2c0,0.6,0.3,1.8,0.7,2.7
			c0.3,0.7,0.6,1.3,1.3,1.3c0.8,0,1.1-0.6,1.3-1.3c0.3-0.9,0.7-2.1,0.7-2.7C14,19.9,13.1,19,12,19z"/>
	</g>
</g>
</svg>
