<?xml version="1.0" encoding="utf-8"?>
<!-- Generator: Adobe Illustrator 19.0.1, SVG Export Plug-In . SVG Version: 6.00 Build 0)  -->
<svg version="1.1" id="Layer_1" xmlns="http://www.w3.org/2000/svg" xmlns:xlink="http://www.w3.org/1999/xlink" x="0px" y="0px"
	 viewBox="0 0 32 32" style="enable-background:new 0 0 32 32;" xml:space="preserve">
<style type="text/css">
	.st0{fill-rule:evenodd;clip-rule:evenodd;fill:#353535;}
</style>
<g id="megaphone">
	<g>
		<path class="st0" d="M25,0c-2.1,0-3.7,1.4-4.8,3.6l0,0C18.5,6.9,16,9,13.2,9H4c-2.2,0-4,2.2-4,5c0,2.8,1.8,5,4,5c1.1,0,2,0.9,2,2
			v9c0,1.1,0.9,2,2,2h4c1.1,0,2-0.9,2-2v-1c0-1-1-1.4-1-2v-7c0,0,0,0,0-0.1c0-0.1,0-0.3,0.1-0.4c0,0,0-0.1,0.1-0.1
			c0.1-0.1,0.2-0.2,0.3-0.3c0,0,0,0,0,0c0,0,0,0,0,0c0.1,0,0.2-0.1,0.3-0.1c2.5,0.3,4.8,2.3,6.4,5.4l0,0C21.3,26.6,23,28,25,28
			c4.6,0,7-7,7-14C32,7,29.6,0,25,0z M4,17c-1.1,0-2-1.3-2-3c0-1.7,0.9-3,2-3h7c-0.6,0.7-1,1.8-1,3c0,1.2,0.4,2.3,1,3H4z M12,30H8
			v-9c0-0.7-0.2-1.4-0.5-2h0.7v0h3c-0.1,0.3-0.2,0.6-0.2,1v7c0,1,0.5,1.6,0.9,2c0,0.1,0.1,0.1,0.1,0.2V30z M13.2,17H13v0
			c-1.1,0-2-1.3-2-3c0-1.7,0.9-3,2-3h0.2c1.9,0,3.7-0.7,5.2-2c-0.3,1.6-0.4,3.3-0.4,5c0,1.7,0.1,3.4,0.4,5
			C16.9,17.8,15.1,17,13.2,17z M20.2,17c-0.1-1-0.2-2-0.2-3c0-1,0.1-2,0.2-3H23c1.1,0,2,1.3,2,3c0,1.7-0.9,3-2,3H20.2z M25,26
			c-2,0-3.8-2.9-4.5-7H23c2.2,0,4-2.2,4-5c0-2.8-1.8-5-4-5h-2.5C21.3,4.9,23,2,25,2c2.8,0,5,5.4,5,12S27.8,26,25,26z"/>
	</g>
</g>
</svg>
