<?xml version="1.0" encoding="utf-8"?>
<!-- Generator: Adobe Illustrator 19.0.1, SVG Export Plug-In . SVG Version: 6.00 Build 0)  -->
<svg version="1.1" id="Layer_1" xmlns="http://www.w3.org/2000/svg" xmlns:xlink="http://www.w3.org/1999/xlink" x="0px" y="0px"
	 viewBox="0 0 32 32" style="enable-background:new 0 0 32 32;" xml:space="preserve">
<style type="text/css">
	.st0{fill-rule:evenodd;clip-rule:evenodd;fill:#353535;}
</style>
<g id="music">
	<g>
		<path class="st0" d="M31.3,0.5C30.9,0.2,30.5,0,30,0c-0.1,0-0.2,0-0.3,0l-17,3c-1,0.2-1.7,1-1.7,2v17.2C10,21.4,8.7,21,7.2,21
			c-0.8,0-1.7,0.1-2.5,0.4c-1.9,0.6-3.4,1.9-4.2,3.5c-0.6,1.2-0.7,2.6-0.2,3.7C1,30.7,3.2,32,5.8,32c0.8,0,1.7-0.1,2.5-0.4
			c1.9-0.6,3.4-1.9,4.2-3.5c0.3-0.7,0.5-1.4,0.5-2.1h0V10c0.1,0,0.2,0,0.3,0L30,7v12.1c-1-0.7-2.3-1.2-3.8-1.2
			c-0.8,0-1.7,0.1-2.5,0.4c-1.9,0.6-3.4,1.9-4.2,3.5c-0.6,1.2-0.7,2.6-0.2,3.7c0.8,2,2.9,3.4,5.5,3.4c0.8,0,1.7-0.1,2.5-0.4
			c1.9-0.6,3.4-1.9,4.2-3.5c0.3-0.7,0.5-1.4,0.5-2.1h0V2C32,1.4,31.7,0.8,31.3,0.5z M7.7,29.7c-2.4,0.8-4.9,0-5.5-1.7
			c-0.7-1.8,0.8-3.8,3.1-4.6c2.4-0.8,4.9,0,5.5,1.7C11.5,26.8,10.1,28.9,7.7,29.7z M30,5L13,8V5l17-3V5z M26.7,26.7
			c-2.4,0.8-4.9,0-5.5-1.7c-0.7-1.8,0.8-3.8,3.1-4.6c2.4-0.8,4.9,0,5.5,1.7C30.5,23.8,29,25.9,26.7,26.7z"/>
	</g>
</g>
</svg>
