<?xml version="1.0" encoding="utf-8"?>
<!-- Generator: Adobe Illustrator 19.0.1, SVG Export Plug-In . SVG Version: 6.00 Build 0)  -->
<svg version="1.1" id="Layer_1" xmlns="http://www.w3.org/2000/svg" xmlns:xlink="http://www.w3.org/1999/xlink" x="0px" y="0px"
	 viewBox="0 0 32 30" style="enable-background:new 0 0 32 30;" xml:space="preserve">
<style type="text/css">
	.st0{fill:#353535;}
</style>
<g id="note">
	<g>
		<path class="st0" d="M31.4,6.6l-6-6C25,0.2,24.5,0,24,0H3C1.3,0,0,1.3,0,3v24c0,1.7,1.3,3,3,3h26c1.7,0,3-1.3,3-3V8
			C32,7.5,31.8,7,31.4,6.6z M30,27c0,0.6-0.4,1-1,1H3c-0.6,0-1-0.4-1-1V3c0-0.6,0.4-1,1-1h20v4h0c0,1.7,1.3,3,3,3h4V27z M26,8
			c-1.1,0-2-0.9-2-2h0V2l6,6H26z M15.5,7h5C20.8,7,21,6.8,21,6.5C21,6.2,20.8,6,20.5,6h-5C15.2,6,15,6.2,15,6.5
			C15,6.8,15.2,7,15.5,7z M15.5,10h5c0.3,0,0.5-0.2,0.5-0.5C21,9.2,20.8,9,20.5,9h-5C15.2,9,15,9.2,15,9.5C15,9.8,15.2,10,15.5,10z
			 M15,12.5c0,0.3,0.2,0.5,0.5,0.5h12c0.3,0,0.5-0.2,0.5-0.5c0-0.3-0.2-0.5-0.5-0.5h-12C15.2,12,15,12.2,15,12.5z M27.5,18h-23
			C4.2,18,4,18.2,4,18.5C4,18.8,4.2,19,4.5,19h23c0.3,0,0.5-0.2,0.5-0.5C28,18.2,27.8,18,27.5,18z M27.5,21h-23
			C4.2,21,4,21.2,4,21.5C4,21.8,4.2,22,4.5,22h23c0.3,0,0.5-0.2,0.5-0.5C28,21.2,27.8,21,27.5,21z M27.5,24h-23
			C4.2,24,4,24.2,4,24.5C4,24.8,4.2,25,4.5,25h23c0.3,0,0.5-0.2,0.5-0.5C28,24.2,27.8,24,27.5,24z M27.5,15h-23
			C4.2,15,4,15.2,4,15.5C4,15.8,4.2,16,4.5,16h23c0.3,0,0.5-0.2,0.5-0.5C28,15.2,27.8,15,27.5,15z M5,13h7c0.6,0,1-0.4,1-1V6
			c0-0.6-0.4-1-1-1H5C4.4,5,4,5.4,4,6v6C4,12.6,4.4,13,5,13z M6,7h5v4H6V7z"/>
	</g>
</g>
</svg>
