<?xml version="1.0" encoding="utf-8"?>
<!-- Generator: Adobe Illustrator 19.0.1, SVG Export Plug-In . SVG Version: 6.00 Build 0)  -->
<svg version="1.1" id="Layer_1" xmlns="http://www.w3.org/2000/svg" xmlns:xlink="http://www.w3.org/1999/xlink" x="0px" y="0px"
	 viewBox="0 0 32 32" style="enable-background:new 0 0 32 32;" xml:space="preserve">
<style type="text/css">
	.st0{fill-rule:evenodd;clip-rule:evenodd;fill:#353535;}
</style>
<g id="paperplane">
	<g>
		<path class="st0" d="M31.5,0.2C31.4,0.1,31.2,0,31,0c-0.2,0-0.4,0.1-0.6,0.2l-30,20C0.1,20.4,0,20.7,0,21.1c0,0.4,0.3,0.7,0.6,0.8
			l7.8,3.1l3.7,6.4c0.2,0.3,0.5,0.5,0.9,0.5h0c0.4,0,0.7-0.2,0.9-0.5l2.1-3.5l9.7,3.9c0.1,0,0.2,0.1,0.4,0.1c0.2,0,0.3,0,0.5-0.1
			c0.3-0.1,0.4-0.4,0.5-0.7l5-30C32.1,0.8,31.9,0.4,31.5,0.2z M9.2,23.2l-6.1-2.4L26.3,5.3l-16.8,18C9.4,23.3,9.3,23.2,9.2,23.2z
			 M13,28.9l-2.8-4.9c0,0,0,0,0,0L29.1,3.8L13,28.9z M25.2,29.6l-8.5-3.4c-0.2-0.1-0.4-0.1-0.6-0.1L29.2,5.7L25.2,29.6z"/>
	</g>
</g>
</svg>
