<?xml version="1.0" encoding="utf-8"?>
<!-- Generator: Adobe Illustrator 19.0.1, SVG Export Plug-In . SVG Version: 6.00 Build 0)  -->
<svg version="1.1" id="Layer_1" xmlns="http://www.w3.org/2000/svg" xmlns:xlink="http://www.w3.org/1999/xlink" x="0px" y="0px"
	 viewBox="0 0 32 32" style="enable-background:new 0 0 32 32;" xml:space="preserve">
<style type="text/css">
	.st0{fill:#353535;}
</style>
<g id="params">
	<g>
		<path class="st0" d="M8,6V3c0-1.7-1.3-3-3-3S2,1.3,2,3v3c-1.2,0.9-2,2.3-2,4c0,1.6,0.8,3.1,2,4v15c0,1.7,1.3,3,3,3s3-1.3,3-3V14
			c1.2-0.9,2-2.3,2-4C10,8.4,9.2,6.9,8,6z M4,3c0-0.6,0.4-1,1-1c0.6,0,1,0.4,1,1v2.1C5.7,5,5.3,5,5,5C4.7,5,4.3,5,4,5.1V3z M6,29
			c0,0.6-0.4,1-1,1c-0.6,0-1-0.4-1-1V14.9C4.3,15,4.7,15,5,15c0.3,0,0.7,0,1-0.1V29z M7.9,10.8c0,0.1,0,0.1,0,0.2
			c-0.1,0.3-0.2,0.5-0.4,0.7c0,0,0,0,0,0C7.3,12,7,12.2,6.8,12.4c0,0,0,0,0,0c-0.2,0.2-0.5,0.3-0.8,0.4C5.7,12.9,5.4,13,5,13
			s-0.7-0.1-1-0.2c-0.3-0.1-0.6-0.2-0.8-0.4c0,0,0,0,0,0C3,12.2,2.7,12,2.6,11.8c0,0,0,0,0,0c-0.2-0.2-0.3-0.5-0.4-0.7
			c0-0.1,0-0.1,0-0.2C2.1,10.6,2,10.3,2,10c0-0.3,0.1-0.6,0.1-0.8c0-0.1,0-0.1,0-0.2c0.1-0.3,0.2-0.5,0.4-0.7c0,0,0,0,0,0
			C2.7,8,3,7.8,3.2,7.6c0,0,0,0,0,0C3.4,7.4,3.7,7.3,4,7.2C4.3,7.1,4.6,7,5,7s0.7,0.1,1,0.2c0.3,0.1,0.6,0.3,0.8,0.4c0,0,0,0,0,0
			C7,7.8,7.3,8,7.4,8.2c0,0,0,0,0,0C7.6,8.5,7.7,8.7,7.8,9c0,0.1,0,0.1,0,0.2C7.9,9.4,8,9.7,8,10C8,10.3,7.9,10.6,7.9,10.8z M30,6V3
			c0-1.7-1.3-3-3-3s-3,1.3-3,3v3c-1.2,0.9-2,2.3-2,4c0,1.6,0.8,3.1,2,4v15c0,1.7,1.3,3,3,3s3-1.3,3-3V14c1.2-0.9,2-2.3,2-4
			C32,8.4,31.2,6.9,30,6z M26,3c0-0.6,0.4-1,1-1s1,0.4,1,1v2.1C27.7,5,27.3,5,27,5c-0.3,0-0.7,0-1,0.1V3z M28,29c0,0.6-0.4,1-1,1
			s-1-0.4-1-1V14.9c0.3,0.1,0.7,0.1,1,0.1c0.3,0,0.7,0,1-0.1V29z M29.9,10.8c0,0.1,0,0.1,0,0.2c-0.1,0.3-0.2,0.5-0.4,0.7
			c0,0,0,0,0,0c-0.2,0.2-0.4,0.4-0.6,0.6c0,0,0,0,0,0c-0.2,0.2-0.5,0.3-0.8,0.4c-0.3,0.1-0.6,0.2-1,0.2c-0.4,0-0.7-0.1-1-0.2
			c-0.3-0.1-0.6-0.2-0.8-0.4c0,0,0,0,0,0c-0.2-0.2-0.4-0.4-0.6-0.6c0,0,0,0,0,0c-0.2-0.2-0.3-0.5-0.4-0.7c0-0.1,0-0.1,0-0.2
			C24.1,10.6,24,10.3,24,10c0-0.3,0.1-0.6,0.1-0.8c0-0.1,0-0.1,0-0.2c0.1-0.3,0.2-0.5,0.4-0.7c0,0,0,0,0,0C24.7,8,25,7.8,25.2,7.6
			c0,0,0,0,0,0c0.2-0.2,0.5-0.3,0.8-0.4C26.3,7.1,26.6,7,27,7c0.4,0,0.7,0.1,1,0.2c0.3,0.1,0.6,0.3,0.8,0.4c0,0,0,0,0,0
			C29,7.8,29.3,8,29.4,8.2c0,0,0,0,0,0c0.2,0.2,0.3,0.5,0.4,0.7c0,0.1,0,0.1,0,0.2C29.9,9.4,30,9.7,30,10
			C30,10.3,29.9,10.6,29.9,10.8z M19,18V3c0-1.7-1.3-3-3-3s-3,1.3-3,3v15c-1.2,0.9-2,2.3-2,4s0.8,3.1,2,4v3c0,1.7,1.3,3,3,3
			s3-1.3,3-3v-3c1.2-0.9,2-2.3,2-4S20.2,18.9,19,18z M15,3c0-0.6,0.4-1,1-1s1,0.4,1,1v14.1C16.7,17,16.3,17,16,17
			c-0.3,0-0.7,0-1,0.1V3z M17,29c0,0.6-0.4,1-1,1s-1-0.4-1-1v-2.1c0.3,0.1,0.7,0.1,1,0.1c0.3,0,0.7,0,1-0.1V29z M18.9,22.8
			c0,0.1,0,0.1,0,0.2c-0.1,0.3-0.2,0.5-0.4,0.7c0,0,0,0,0,0c-0.2,0.2-0.4,0.4-0.6,0.6c0,0,0,0,0,0c-0.2,0.2-0.5,0.3-0.8,0.4
			c-0.3,0.1-0.6,0.2-1,0.2c-0.4,0-0.7-0.1-1-0.2c-0.3-0.1-0.6-0.2-0.8-0.4c0,0,0,0,0,0c-0.2-0.2-0.4-0.4-0.6-0.6c0,0,0,0,0,0
			c-0.2-0.2-0.3-0.5-0.4-0.7c0-0.1,0-0.1,0-0.2C13.1,22.6,13,22.3,13,22c0-0.3,0.1-0.6,0.1-0.8c0-0.1,0-0.1,0-0.2
			c0.1-0.3,0.2-0.5,0.4-0.7c0,0,0,0,0,0c0.2-0.2,0.4-0.4,0.6-0.6c0,0,0,0,0,0c0.2-0.2,0.5-0.3,0.8-0.4c0.3-0.1,0.6-0.2,1-0.2
			c0.4,0,0.7,0.1,1,0.2c0.3,0.1,0.6,0.3,0.8,0.4c0,0,0,0,0,0c0.2,0.2,0.4,0.4,0.6,0.6c0,0,0,0,0,0c0.2,0.2,0.3,0.5,0.4,0.7
			c0,0.1,0,0.1,0,0.2c0.1,0.3,0.1,0.5,0.1,0.8C19,22.3,18.9,22.6,18.9,22.8z"/>
	</g>
</g>
</svg>
