<?xml version="1.0" encoding="utf-8"?>
<!-- Generator: Adobe Illustrator 19.0.1, SVG Export Plug-In . SVG Version: 6.00 Build 0)  -->
<svg version="1.1" id="Layer_1" xmlns="http://www.w3.org/2000/svg" xmlns:xlink="http://www.w3.org/1999/xlink" x="0px" y="0px"
	 viewBox="0 0 32 32" style="enable-background:new 0 0 32 32;" xml:space="preserve">
<style type="text/css">
	.st0{fill-rule:evenodd;clip-rule:evenodd;fill:#353535;}
</style>
<g id="pen">
	<g>
		<path class="st0" d="M29.4,2.6C27.8,0.9,25.6,0,23.4,0c-1.8,0-3.5,0.7-4.7,1.9l-4.9,4.9c0,0,0,0,0,0c0,0,0,0,0,0l0,0L3.5,17.3
			c-0.5,0.5-0.8,1.1-1,1.7l-2.3,8.5c0,0-0.2,0.7-0.2,1C0,30.4,1.6,32,3.5,32c0.4,0,1.1-0.2,1.2-0.2l8.5-2.2c0.6-0.2,1.2-0.5,1.7-1
			l15.3-15.4C32.9,10.4,32.6,5.8,29.4,2.6z M15.3,8.2c1.2-1.2,2.9-1.5,4.6-1.1l-9.4,9.4C9.6,16.2,8.6,16,7.6,16L15.3,8.2z M4.2,29.9
			c-0.1,0-0.4,0.1-0.7,0.1C2.7,30,2,29.3,2,28.5c0-0.2,0.1-0.5,0.1-0.6l1.1-3.8c1.1,0,2.4,0.4,3.3,1.4c1,1,1.4,2.2,1.4,3.4L4.2,29.9
			z M12.9,27.5c-0.1,0.1-0.2,0.1-0.4,0.2l-3.7,1c0-1.3-0.6-2.7-1.7-3.8c-1-1-2.4-1.6-3.8-1.7l1-3.6c0.1-0.2,0.2-0.5,0.4-0.7
			c2-1.4,5.1-1,7.2,1.1C14.3,22.2,14.7,25.5,12.9,27.5z M14.8,20.3c-0.4-0.6-0.8-1.2-1.3-1.7c-0.6-0.6-1.3-1.1-2-1.5L21,7.5
			c0.7,0.3,1.5,0.8,2.1,1.4c0.5,0.5,1,1.1,1.3,1.8L14.8,20.3z M23.8,16.7C23.8,16.7,23.7,16.7,23.8,16.7L23.8,16.7L16,24.5
			c0-0.2,0-0.5,0-0.7c-0.1-0.9-0.3-1.8-0.7-2.6l9.5-9.5C25.3,13.5,25,15.5,23.8,16.7z M28.7,11.8L27,13.5c0-0.2,0-0.4,0-0.7
			c-0.2-1.9-1.1-3.8-2.5-5.3C22.8,5.9,20.7,5,18.5,5l1.7-1.7C21,2.5,22.2,2,23.4,2c1.6,0,3.3,0.7,4.5,2c1.2,1.2,1.9,2.7,2,4.2
			C30.1,9.6,29.6,10.8,28.7,11.8z"/>
	</g>
</g>
</svg>
