<?xml version="1.0" encoding="utf-8"?>
<!-- Generator: Adobe Illustrator 19.0.1, SVG Export Plug-In . SVG Version: 6.00 Build 0)  -->
<svg version="1.1" id="Layer_1" xmlns="http://www.w3.org/2000/svg" xmlns:xlink="http://www.w3.org/1999/xlink" x="0px" y="0px"
	 viewBox="0 0 22 32" style="enable-background:new 0 0 22 32;" xml:space="preserve">
<style type="text/css">
	.st0{fill:#353535;}
</style>
<g id="phone">
	<g>
		<path class="st0" d="M19,0L3,0C1.3,0,0,1.3,0,3v26c0,1.7,1.3,3,3,3l16,0c1.7,0,3-1.3,3-3V3C22,1.3,20.7,0,19,0z M20,29
			c0,0.6-0.4,1-1,1L3,30c-0.6,0-1-0.4-1-1v-2l18,0V29z M20,26L2,26V6l18,0V26z M20,5L2,5V3c0-0.6,0.4-1,1-1l16,0c0.6,0,1,0.4,1,1V5z
			 M12.5,3h-3C9.2,3,9,3.2,9,3.5C9,3.8,9.2,4,9.5,4h3C12.8,4,13,3.8,13,3.5C13,3.2,12.8,3,12.5,3z M10.5,29h1c0.3,0,0.5-0.2,0.5-0.5
			S11.8,28,11.5,28h-1c-0.3,0-0.5,0.2-0.5,0.5S10.2,29,10.5,29z"/>
	</g>
</g>
</svg>
