<?xml version="1.0" encoding="utf-8"?>
<!-- Generator: Adobe Illustrator 19.0.1, SVG Export Plug-In . SVG Version: 6.00 Build 0)  -->
<svg version="1.1" id="Layer_1" xmlns="http://www.w3.org/2000/svg" xmlns:xlink="http://www.w3.org/1999/xlink" x="0px" y="0px"
	 viewBox="0 0 30 32" style="enable-background:new 0 0 30 32;" xml:space="preserve">
<style type="text/css">
	.st0{fill:#353535;}
</style>
<g id="photo">
	<g>
		<path class="st0" d="M26,0H4C1.8,0,0,1.8,0,4v24c0,2.2,1.8,4,4,4h22c2.2,0,4-1.8,4-4V4C30,1.8,28.2,0,26,0z M28,28
			c0,1.1-0.9,2-2,2H4c-1.1,0-2-0.9-2-2V4c0-1.1,0.9-2,2-2h22c1.1,0,2,0.9,2,2V28z M25,4H5C4.4,4,4,4.4,4,5v18c0,0.6,0.4,1,1,1h20
			c0.6,0,1-0.4,1-1V5C26,4.4,25.6,4,25,4z M5,23v-8.4L9,10l8.1,9.1l0.6,0.7l2.8,3.2H5z M25,23h-3.3l-3.4-4l2.7-3l4,4.4V23z M25,18.9
			l-3.3-3.5C21.6,15.1,21.3,15,21,15s-0.6,0.1-0.8,0.3l-2.6,3l-7.9-9C9.6,9.1,9.3,9,9,9S8.4,9.1,8.3,9.3L5,13.1V5h20V18.9z M19,13
			c1.7,0,3-1.3,3-3s-1.3-3-3-3c-1.7,0-3,1.3-3,3S17.3,13,19,13z M19,8c1.1,0,2,0.9,2,2c0,1.1-0.9,2-2,2s-2-0.9-2-2
			C17,8.9,17.9,8,19,8z"/>
	</g>
</g>
</svg>
