<?xml version="1.0" encoding="utf-8"?>
<!-- Generator: Adobe Illustrator 19.0.1, SVG Export Plug-In . SVG Version: 6.00 Build 0)  -->
<svg version="1.1" id="Layer_1" xmlns="http://www.w3.org/2000/svg" xmlns:xlink="http://www.w3.org/1999/xlink" x="0px" y="0px"
	 viewBox="0 0 32 32" style="enable-background:new 0 0 32 32;" xml:space="preserve">
<style type="text/css">
	.st0{fill:#353535;}
</style>
<g id="search">
	<g>
		<path class="st0" d="M20,0C13.4,0,8,5.4,8,12c0,2,0.5,3.9,1.4,5.6l-8.3,8.3l0,0C0.4,26.6,0,27.5,0,28.5C0,30.4,1.6,32,3.5,32
			c1,0,1.9-0.4,2.5-1.1l0,0l8.3-8.3C16.1,23.5,18,24,20,24c6.6,0,12-5.4,12-12C32,5.4,26.6,0,20,0z M4.8,29.7
			C4.5,30,4,30.2,3.5,30.2c-1,0-1.8-0.8-1.8-1.8c0-0.5,0.2-0.9,0.5-1.3l0,0l8.1-8.1c0.7,1,1.5,1.8,2.5,2.5L4.8,29.7z M20,22
			c-5.5,0-10-4.5-10-10c0-5.5,4.5-10,10-10c5.5,0,10,4.5,10,10C30,17.5,25.5,22,20,22z M20,5c-3.9,0-7,3.1-7,7
			c0,0.3,0.2,0.5,0.5,0.5c0.3,0,0.5-0.2,0.5-0.5c0-3.3,2.7-6,6-6c0.3,0,0.5-0.2,0.5-0.5C20.5,5.2,20.3,5,20,5z"/>
	</g>
</g>
</svg>
