<?xml version="1.0" encoding="utf-8"?>
<!-- Generator: Adobe Illustrator 19.0.1, SVG Export Plug-In . SVG Version: 6.00 Build 0)  -->
<svg version="1.1" id="Layer_1" xmlns="http://www.w3.org/2000/svg" xmlns:xlink="http://www.w3.org/1999/xlink" x="0px" y="0px"
	 viewBox="0 0 32 32" style="enable-background:new 0 0 32 32;" xml:space="preserve">
<style type="text/css">
	.st0{fill:#353535;}
</style>
<g id="sound">
	<g>
		<path class="st0" d="M27,14L27,14c0,0.3,0.2,0.5,0.5,0.5c0.3,0,0.5-0.2,0.5-0.5c0,0,0,0,0,0c0-5.5-4.5-10-10-10c0,0,0,0,0,0
			c-0.3,0-0.5,0.2-0.5,0.5C17.5,4.8,17.7,5,18,5v0C23,5,27,9,27,14z M9.1,0.9C8.5,0.3,7.8,0,7,0C6.6,0,6.2,0.1,5.8,0.2
			C4.7,0.7,4,1.8,4,3l0,13.8l-3.1,3.1c-1.2,1.2-1.2,3.1,0,4.2l7,7C8.4,31.7,9.2,32,10,32s1.5-0.3,2.1-0.9l3.1-3.1H29
			c1.2,0,2.3-0.7,2.8-1.9c0.5-1.1,0.2-2.4-0.7-3.3L9.1,0.9z M13.8,26.6l-3.1,3.1C10.4,30,10.1,30,10,30c-0.2,0-0.5,0-0.7-0.3l-7-7
			C2,22.5,2,22.2,2,22c0-0.2,0-0.5,0.3-0.7l3.1-3.1c0,0,0,0,0,0L13.8,26.6C13.8,26.6,13.8,26.6,13.8,26.6z M15.2,26
			c-0.2,0-0.3,0.1-0.4,0.1l-8.9-8.9c0-0.1,0.1-0.3,0.1-0.4l0-12L27.3,26H15.2z M29.9,25.4C29.8,25.8,29.4,26,29,26h-0.3L6,3.3V3
			c0-0.4,0.2-0.8,0.6-0.9C6.7,2,6.8,2,7,2c0.3,0,0.5,0.1,0.7,0.3l22,22C30,24.6,30.1,25,29.9,25.4z M18,2L18,2c6.6,0,12,5.4,12,12h0
			c0,0.6,0.4,1,1,1c0.6,0,1-0.4,1-1c0,0,0,0,0,0c0-7.7-6.3-14-14-14c0,0,0,0,0,0c-0.6,0-1,0.4-1,1C17,1.6,17.4,2,18,2z"/>
	</g>
</g>
</svg>
