<?xml version="1.0" encoding="utf-8"?>
<!-- Generator: Adobe Illustrator 19.0.1, SVG Export Plug-In . SVG Version: 6.00 Build 0)  -->
<svg version="1.1" id="Layer_1" xmlns="http://www.w3.org/2000/svg" xmlns:xlink="http://www.w3.org/1999/xlink" x="0px" y="0px"
	 viewBox="0 0 32 28" style="enable-background:new 0 0 32 28;" xml:space="preserve">
<style type="text/css">
	.st0{fill:#353535;}
</style>
<g id="stack">
	<g>
		<path class="st0" d="M31.9,16.5l-4-15C27.7,0.6,26.9,0,26,0H6C5.1,0,4.3,0.6,4.1,1.4l-4,15C0,16.6,0,16.8,0,17v7c0,2.2,1.8,4,4,4
			h24c2.2,0,4-1.8,4-4v-7C32,16.8,32,16.6,31.9,16.5z M30,24c0,1.1-0.9,2-2,2H4c-1.1,0-2-0.9-2-2v-7L6,2h20l4,15V24z M23.7,4H8.3
			c-0.5,0-0.8,0.3-1,0.7l-3.4,12c-0.1,0.3,0,0.6,0.2,0.9C4.2,17.9,4.5,18,4.8,18h4.6l1.4,2.9c0.3,0.7,1,1.1,1.8,1.1h6.8
			c0.8,0,1.5-0.4,1.8-1.1l1.4-2.9h4.6c0.3,0,0.6-0.1,0.8-0.4c0.2-0.2,0.3-0.6,0.2-0.9l-3.4-12C24.6,4.3,24.2,4,23.7,4z M22.6,16
			c-0.8,0-1.4,0.4-1.8,1.1L19.4,20h-6.8l-1.4-2.9c-0.3-0.7-1-1.1-1.8-1.1h-4L8.3,5h15.5l2.9,11H22.6z"/>
	</g>
</g>
</svg>
