<?xml version="1.0" encoding="utf-8"?>
<!-- Generator: Adobe Illustrator 19.0.1, SVG Export Plug-In . SVG Version: 6.00 Build 0)  -->
<svg version="1.1" id="Layer_1" xmlns="http://www.w3.org/2000/svg" xmlns:xlink="http://www.w3.org/1999/xlink" x="0px" y="0px"
	 viewBox="0 0 32 28" style="enable-background:new 0 0 32 28;" xml:space="preserve">
<style type="text/css">
	.st0{fill:#272B24;}
</style>
<g id="study">
	<g>
		<path class="st0" d="M32,6c0-1.4-1-2.6-2.3-2.9l-13-3C16.4,0,16.2,0,16,0s-0.4,0-0.7,0.1l-13,3C1,3.4,0,4.6,0,6
			c0,1.4,1,2.6,2.3,2.9L5,9.5V18c0,2.7,3,5,11,5s11-2.3,11-5V9.5l2.7-0.6C31,8.6,32,7.4,32,6z M25,18c0,1.1-3,3-9,3s-9-1.9-9-3v-8
			l8.3,1.9c0.2,0,0.4,0.1,0.7,0.1s0.4,0,0.7-0.1L25,10V18z M16.2,10c-0.1,0-0.1,0-0.2,0s-0.2,0-0.2,0l-13-3C2.3,6.9,2,6.5,2,6
			s0.3-0.9,0.8-1l13-3c0.1,0,0.1,0,0.2,0s0.2,0,0.2,0l13,3C29.7,5.1,30,5.5,30,6s-0.3,0.9-0.8,1L16.2,10z M29,11v9c0,0.6,0.4,1,1,1
			s1-0.4,1-1v-9c0-0.6-0.4-1-1-1S29,10.4,29,11z M30,22c-1.1,0-2,2.9-2,4s0.9,2,2,2s2-0.9,2-2S31.1,22,30,22z"/>
	</g>
</g>
</svg>
