<?xml version="1.0" encoding="utf-8"?>
<!-- Generator: Adobe Illustrator 19.0.1, SVG Export Plug-In . SVG Version: 6.00 Build 0)  -->
<svg version="1.1" id="Layer_1" xmlns="http://www.w3.org/2000/svg" xmlns:xlink="http://www.w3.org/1999/xlink" x="0px" y="0px"
	 viewBox="0 0 32 28" style="enable-background:new 0 0 32 28;" xml:space="preserve">
<style type="text/css">
	.st0{fill-rule:evenodd;clip-rule:evenodd;fill:#353535;}
</style>
<g id="t-shirt">
	<g>
		<path class="st0" d="M31.2,4.4l-5-4C25.9,0.2,25.5,0,25,0H7C6.5,0,6.1,0.2,5.8,0.4l-5,4C0.1,5-0.2,5.8,0.1,6.6l2,6
			c0.2,0.6,0.7,1.1,1.2,1.3C3.6,14,3.8,14,4,14c0.3,0,0.7-0.1,1-0.3V26c0,1.1,0.9,2,2,2h18c1.1,0,2-0.9,2-2V13.7
			c0.3,0.2,0.7,0.3,1,0.3c0.2,0,0.4,0,0.6-0.1c0.6-0.2,1.1-0.7,1.2-1.3l2-6C32.2,5.8,31.9,5,31.2,4.4z M19.8,2c-0.6,1.2-2,2-3.8,2
			c-1.7,0-3.2-0.8-3.8-2H19.8z M28,12l-3-2v16H7V10l-3,2L2,6l5-4h4.2c0.6,1.7,2.5,3,4.8,3s4.3-1.3,4.8-3H25l5,4L28,12z"/>
	</g>
</g>
</svg>
