<?xml version="1.0" encoding="utf-8"?>
<!-- Generator: Adobe Illustrator 19.0.1, SVG Export Plug-In . SVG Version: 6.00 Build 0)  -->
<svg version="1.1" id="Layer_1" xmlns="http://www.w3.org/2000/svg" xmlns:xlink="http://www.w3.org/1999/xlink" x="0px" y="0px"
	 viewBox="0 0 32 24" style="enable-background:new 0 0 32 24;" xml:space="preserve">
<style type="text/css">
	.st0{fill:#353535;}
</style>
<g id="tag">
	<g>
		<path class="st0" d="M31.4,9.9l-5-8C25.7,0.7,24.4,0,23,0H4C1.8,0,0,1.8,0,4v16c0,2.2,1.8,4,4,4h19c1.4,0,2.7-0.7,3.4-1.9l5-8
			C32.2,12.8,32.2,11.2,31.4,9.9z M29.7,13.1l-5,8c-0.4,0.6-1,0.9-1.7,0.9H4c-1.1,0-2-0.9-2-2V4c0-1.1,0.9-2,2-2h19
			c0.7,0,1.3,0.4,1.7,0.9l5,8C30.1,11.6,30.1,12.4,29.7,13.1z M23,9c-1.7,0-3,1.3-3,3s1.3,3,3,3s3-1.3,3-3S24.7,9,23,9z M23,14
			c-1.1,0-2-0.9-2-2s0.9-2,2-2s2,0.9,2,2S24.1,14,23,14z"/>
	</g>
</g>
</svg>
