<?xml version="1.0" encoding="utf-8"?>
<!-- Generator: Adobe Illustrator 19.0.1, SVG Export Plug-In . SVG Version: 6.00 Build 0)  -->
<svg version="1.1" id="Layer_1" xmlns="http://www.w3.org/2000/svg" xmlns:xlink="http://www.w3.org/1999/xlink" x="0px" y="0px"
	 viewBox="0 0 28 32" style="enable-background:new 0 0 28 32;" xml:space="preserve">
<style type="text/css">
	.st0{fill:#353535;}
</style>
<g id="trash">
	<g>
		<path class="st0" d="M28,6.8C27.9,5.2,26.6,4,25,4h-3V3c0-1.7-1.3-3-3-3H9C7.3,0,6,1.3,6,3v1H3C1.4,4,0.1,5.2,0,6.8h0V9
			c0,1.1,0.9,2,2,2v17c0,2.2,1.8,4,4,4h16c2.2,0,4-1.8,4-4V11c1.1,0,2-0.9,2-2L28,6.8L28,6.8z M8,3c0-0.6,0.4-1,1-1h10
			c0.6,0,1,0.4,1,1v1H8V3z M24,28c0,1.1-0.9,2-2,2H6c-1.1,0-2-0.9-2-2V11h20V28z M26,9H2V7c0-0.6,0.4-1,1-1h22c0.6,0,1,0.4,1,1V9z
			 M7,28h2c0.6,0,1-0.4,1-1V14c0-0.6-0.4-1-1-1H7c-0.6,0-1,0.4-1,1v13C6,27.6,6.4,28,7,28z M7,14h2v13H7V14z M13,28h2
			c0.6,0,1-0.4,1-1V14c0-0.6-0.4-1-1-1h-2c-0.6,0-1,0.4-1,1v13C12,27.6,12.4,28,13,28z M13,14h2v13h-2V14z M19,28h2c0.6,0,1-0.4,1-1
			V14c0-0.6-0.4-1-1-1h-2c-0.6,0-1,0.4-1,1v13C18,27.6,18.4,28,19,28z M19,14h2v13h-2V14z"/>
	</g>
</g>
</svg>
