<?xml version="1.0" encoding="utf-8"?>
<!-- Generator: Adobe Illustrator 19.0.1, SVG Export Plug-In . SVG Version: 6.00 Build 0)  -->
<svg version="1.1" id="Layer_1" xmlns="http://www.w3.org/2000/svg" xmlns:xlink="http://www.w3.org/1999/xlink" x="0px" y="0px"
	 viewBox="0 0 32 26" style="enable-background:new 0 0 32 26;" xml:space="preserve">
<style type="text/css">
	.st0{fill:#272B24;}
</style>
<g id="truck">
	<g>
		<path class="st0" d="M24.8,8.4C24.6,8.2,24.3,8,24,8h-1c-0.6,0-1,0.4-1,1v6c0,0.6,0.4,1,1,1h4c0.6,0,1-0.4,1-1v-1.5
			c0-0.2-0.1-0.4-0.2-0.6L24.8,8.4z M27,15h-4V9h1l3,4.5V15z M31.5,12.3l-4-6C26.9,5.5,26,5,25,5h-4V3c0-1.7-1.3-3-3-3H3
			C1.3,0,0,1.3,0,3v11c0,1.7,1.3,3,3,3h0v3c0,1.7,1.3,3,3,3h1.1c0.4,1.7,2,3,3.9,3c1.9,0,3.4-1.3,3.9-3h5.3c0.4,1.7,2,3,3.9,3
			c1.9,0,3.4-1.3,3.9-3H29c1.7,0,3-1.3,3-3v-6C32,13.4,31.8,12.8,31.5,12.3z M3,15c-0.6,0-1-0.4-1-1V3c0-0.6,0.4-1,1-1h15
			c0.6,0,1,0.4,1,1v11c0,0.6-0.4,1-1,1H3z M11,24c-1.1,0-2-0.9-2-2s0.9-2,2-2c1.1,0,2,0.9,2,2S12.1,24,11,24z M24,24
			c-1.1,0-2-0.9-2-2s0.9-2,2-2c1.1,0,2,0.9,2,2S25.1,24,24,24z M30,20c0,0.6-0.4,1-1,1h-1.1c-0.4-1.7-2-3-3.9-3
			c-1.9,0-3.4,1.3-3.9,3h-5.3c-0.4-1.7-2-3-3.9-3c-1.9,0-3.4,1.3-3.9,3H6c-0.6,0-1-0.4-1-1v-3h13c1.7,0,3-1.3,3-3V7h4
			c0.3,0,0.6,0.2,0.8,0.4l4,6c0.1,0.2,0.2,0.4,0.2,0.6V20z"/>
	</g>
</g>
</svg>
