<?xml version="1.0" encoding="utf-8"?>
<!-- Generator: Adobe Illustrator 19.0.1, SVG Export Plug-In . SVG Version: 6.00 Build 0)  -->
<svg version="1.1" id="Layer_1" xmlns="http://www.w3.org/2000/svg" xmlns:xlink="http://www.w3.org/1999/xlink" x="0px" y="0px"
	 viewBox="0 0 32 25" style="enable-background:new 0 0 32 25;" xml:space="preserve">
<style type="text/css">
	.st0{fill:#353535;}
</style>
<g id="tv">
	<g>
		<path class="st0" d="M22.2,4.6c-2.7-0.6-5.5-0.8-8.2-0.8c-2.7,0-5.5,0.3-8.2,0.8C5.5,4.7,5.2,5,5.1,5.3c-1.4,4.4-1.4,8.8,0,13.2
			c0.1,0.3,0.4,0.6,0.7,0.7C8.5,19.7,11.3,20,14,20c2.7,0,5.5-0.3,8.2-0.8c0.4-0.1,0.6-0.3,0.7-0.7c1.4-4.4,1.4-8.8,0-13.2
			C22.8,5,22.5,4.7,22.2,4.6z M22,18.2c-5.3,1.1-10.6,1.1-15.9,0C4.6,14,4.6,9.8,6,5.6c5.3-1.1,10.6-1.1,15.9,0
			C23.3,9.8,23.3,14,22,18.2z M30.8,2.3c-0.2-0.8-0.9-1.4-1.7-1.5C24.8,0.3,20.3,0,16,0C11.6,0,7.2,0.3,2.8,0.8
			C2,0.9,1.3,1.5,1.1,2.3c-1.5,6.4-1.5,12.9,0,19.4c0.2,0.8,0.9,1.4,1.7,1.5c2.1,0.3,4.2,0.4,6.3,0.6C9.1,23.8,9,23.9,9,24
			c0,0.6,3.1,1,7,1c3.9,0,7-0.4,7-1c0-0.1-0.1-0.2-0.2-0.2c2.1-0.1,4.2-0.3,6.3-0.6c0.8-0.1,1.5-0.7,1.7-1.5
			C32.4,15.3,32.4,8.7,30.8,2.3z M28.9,21.2c-8.6,1-17.2,1-25.8,0c-1.5-6.1-1.5-12.3,0-18.4c8.6-1,17.2-1,25.8,0
			C30.4,8.9,30.4,15.1,28.9,21.2z M26.5,8C27.3,8,28,7.3,28,6.5C28,5.7,27.3,5,26.5,5C25.7,5,25,5.7,25,6.5C25,7.3,25.7,8,26.5,8z
			 M26.5,6C26.8,6,27,6.2,27,6.5S26.8,7,26.5,7C26.2,7,26,6.8,26,6.5S26.2,6,26.5,6z M27.5,18h-3c-0.3,0-0.5,0.2-0.5,0.5
			c0,0.3,0.2,0.5,0.5,0.5h3c0.3,0,0.5-0.2,0.5-0.5C28,18.2,27.8,18,27.5,18z M28.5,15h-3c-0.3,0-0.5,0.2-0.5,0.5
			c0,0.3,0.2,0.5,0.5,0.5h3c0.3,0,0.5-0.2,0.5-0.5C29,15.2,28.8,15,28.5,15z M28.5,12h-3c-0.3,0-0.5,0.2-0.5,0.5s0.2,0.5,0.5,0.5h3
			c0.3,0,0.5-0.2,0.5-0.5S28.8,12,28.5,12z M13.5,7.8L8.9,8.2c-0.3,0-0.5,0.3-0.6,0.6L8,11.5C8,11.8,8.2,12,8.5,12
			C8.8,12,9,11.8,9,11.5l0.2-1.9c0-0.3,0.3-0.5,0.6-0.5l3.8-0.3c0.3,0,0.5-0.2,0.5-0.5C14,8,13.8,7.8,13.5,7.8z"/>
	</g>
</g>
</svg>
