<?xml version="1.0" encoding="utf-8"?>
<!-- Generator: Adobe Illustrator 19.0.1, SVG Export Plug-In . SVG Version: 6.00 Build 0)  -->
<svg version="1.1" id="Layer_1" xmlns="http://www.w3.org/2000/svg" xmlns:xlink="http://www.w3.org/1999/xlink" x="0px" y="0px"
	 viewBox="0 0 32 32" style="enable-background:new 0 0 32 32;" xml:space="preserve">
<style type="text/css">
	.st0{fill-rule:evenodd;clip-rule:evenodd;fill:#353535;}
</style>
<g id="user">
	<g>
		<path class="st0" d="M31.1,28.3c-0.2-0.1-3.8-2.5-9.3-3.7c2-2.5,3.3-5.9,3.8-8.2c0.8-3.1,0.5-9.2-2.5-13.1C21.3,1.2,18.9,0,16,0
			c-2.9,0-5.3,1.2-7.1,3.4c-3,3.8-3.3,9.9-2.5,13.1c0.5,2.3,1.8,5.6,3.8,8.2c-5.4,1.2-9.1,3.6-9.3,3.7c-0.7,0.5-1.1,1.4-0.8,2.2
			C0.3,31.4,1.1,32,2,32h28c0.9,0,1.7-0.6,1.9-1.4C32.2,29.7,31.8,28.8,31.1,28.3z M8.2,10.7C8.7,6.5,11.2,2,16,2s7.3,4.5,7.8,8.7
			c0.6,4.5-0.8,9.1-3.6,12.6l-0.3,0.4c-2.4,2.7-5.5,2.7-7.9,0l-0.3-0.4C8.9,19.9,7.6,15.2,8.2,10.7z M2,30c0.1-0.1,3.5-2.3,8.6-3.4
			l2.5-0.5C14,26.6,14.9,27,16,27s2-0.4,2.9-0.9l2.5,0.5c5,1.1,8.4,3.3,8.6,3.4H2z"/>
	</g>
</g>
</svg>
