<?xml version="1.0" encoding="utf-8"?>
<!-- Generator: Adobe Illustrator 19.0.1, SVG Export Plug-In . SVG Version: 6.00 Build 0)  -->
<svg version="1.1" id="Layer_1" xmlns="http://www.w3.org/2000/svg" xmlns:xlink="http://www.w3.org/1999/xlink" x="0px" y="0px"
	 viewBox="0 0 32 22" style="enable-background:new 0 0 32 22;" xml:space="preserve">
<style type="text/css">
	.st0{fill-rule:evenodd;clip-rule:evenodd;fill:#353535;}
</style>
<g id="video">
	<g>
		<path class="st0" d="M30,1h-0.9c-0.5,0-1,0.2-1.4,0.6L25,4.2V3c0-1.7-1.3-3-3-3H3C1.3,0,0,1.3,0,3v16c0,1.7,1.3,3,3,3h19
			c1.7,0,3-1.3,3-3v-1.2l2.7,2.7c0.4,0.4,0.9,0.6,1.4,0.6H30c1.1,0,2-0.9,2-2V3C32,1.9,31.1,1,30,1z M23,19c0,0.6-0.4,1-1,1H3
			c-0.6,0-1-0.4-1-1V3c0-0.6,0.4-1,1-1h19c0.6,0,1,0.4,1,1V19z M30,19h-1l-4-4v0l-1-1V8l5-5h1V19z"/>
	</g>
</g>
</svg>
