<?xml version="1.0" encoding="utf-8"?>
<!-- Generator: Adobe Illustrator 19.0.1, SVG Export Plug-In . SVG Version: 6.00 Build 0)  -->
<svg version="1.1" id="Layer_1" xmlns="http://www.w3.org/2000/svg" xmlns:xlink="http://www.w3.org/1999/xlink" x="0px" y="0px"
	 viewBox="0 0 32 32" style="enable-background:new 0 0 32 32;" xml:space="preserve">
<style type="text/css">
	.st0{fill:#272B24;}
</style>
<g id="vinyl">
	<g>
		<path class="st0" d="M21.9,1.1C13.7-2.1,4.4,1.8,1.1,10.1c-3.3,8.2,0.7,17.5,8.9,20.8c8.2,3.3,17.5-0.7,20.8-8.9
			C34.1,13.7,30.2,4.4,21.9,1.1z M29,21.2c-2.9,7.2-11,10.7-18.2,7.8C3.6,26.1,0.1,18,3,10.8C5.9,3.6,14,0.1,21.2,3
			C28.4,5.9,31.9,14,29,21.2z M16.7,14.1c-1-0.4-2.2,0.1-2.6,1.1c-0.4,1,0.1,2.2,1.1,2.6c1,0.4,2.2-0.1,2.6-1.1
			C18.3,15.7,17.8,14.6,16.7,14.1z M16.9,16.4c-0.2,0.5-0.8,0.8-1.3,0.6c-0.5-0.2-0.8-0.8-0.6-1.3c0.2-0.5,0.8-0.8,1.3-0.6
			C16.9,15.3,17.1,15.9,16.9,16.4z M21.6,18.2c1.2-3.1-0.3-6.6-3.3-7.8c-3.1-1.2-6.6,0.3-7.8,3.3c-1.2,3.1,0.3,6.6,3.3,7.8
			C16.8,22.8,20.3,21.3,21.6,18.2z M19.7,17.5c-0.8,2-3.2,3-5.2,2.2c-2-0.8-3-3.2-2.2-5.2c0.8-2,3.2-3,5.2-2.2
			C19.5,13.1,20.5,15.4,19.7,17.5z M23.4,19L23.4,19c0.1-0.3,0-0.5-0.3-0.6c-0.3-0.1-0.5,0-0.6,0.3l0,0c-0.7,1.8-2.1,3.1-3.7,3.8
			c-0.3,0.1-0.4,0.4-0.3,0.7c0.1,0.3,0.4,0.4,0.7,0.3c0,0,0,0,0,0C21,22.5,22.6,21,23.4,19z M20.3,26.1c-0.3,0.1-0.4,0.4-0.3,0.7
			c0.1,0.3,0.4,0.4,0.7,0.3c0,0,0,0,0,0c2.8-1.2,5.2-3.5,6.4-6.5c0.1-0.3,0-0.5-0.3-0.7c-0.3-0.1-0.5,0-0.6,0.3
			C25.1,22.9,22.9,25,20.3,26.1z M25.3,19.7c0.1-0.3,0-0.5-0.3-0.7c-0.3-0.1-0.5,0-0.7,0.3c-0.9,2.3-2.7,4-4.8,4.9h0
			c-0.3,0.1-0.4,0.4-0.3,0.7c0.1,0.3,0.4,0.4,0.7,0.3c0,0,0,0,0,0C22.3,24.2,24.3,22.3,25.3,19.7z M13.2,9.6
			c0.3-0.1,0.4-0.4,0.3-0.7c-0.1-0.3-0.4-0.4-0.7-0.3c0,0,0,0,0,0C11,9.5,9.4,11,8.6,13h0c-0.1,0.3,0,0.5,0.3,0.6
			c0.3,0.1,0.5,0,0.7-0.3h0C10.2,11.6,11.6,10.3,13.2,9.6z M11.7,5.9c0.3-0.1,0.4-0.4,0.3-0.7C11.8,5,11.5,4.9,11.3,5c0,0,0,0,0,0
			c-2.8,1.2-5.2,3.5-6.4,6.5c-0.1,0.3,0,0.5,0.3,0.7c0.3,0.1,0.5,0,0.6-0.3C6.9,9.1,9.1,7,11.7,5.9z M12.5,7.7L12.5,7.7
			c0.3-0.1,0.4-0.4,0.3-0.7c-0.1-0.3-0.4-0.4-0.7-0.3c0,0,0,0,0,0c-2.3,1-4.3,2.9-5.3,5.5c-0.1,0.3,0,0.5,0.3,0.7
			c0.3,0.1,0.5,0,0.7-0.3C8.6,10.3,10.3,8.6,12.5,7.7z"/>
	</g>
</g>
</svg>
