<?xml version="1.0" encoding="utf-8"?>
<!-- Generator: Adobe Illustrator 19.0.1, SVG Export Plug-In . SVG Version: 6.00 Build 0)  -->
<svg version="1.1" id="Layer_1" xmlns="http://www.w3.org/2000/svg" xmlns:xlink="http://www.w3.org/1999/xlink" x="0px" y="0px"
	 viewBox="0 0 32 31" style="enable-background:new 0 0 32 31;" xml:space="preserve">
<style type="text/css">
	.st0{fill:#353535;}
</style>
<g id="wallet">
	<g>
		<path class="st0" d="M18,17c-1.1,0-2,0.9-2,2s0.9,2,2,2s2-0.9,2-2S19.1,17,18,17z M29,12L29,12l0-9c0-1.7-1.3-3-3-3H5.5
			C2.5,0,0,2.5,0,5.5v20c0,3,2.5,5.5,5.5,5.5h18c3,0,5.5-2.5,5.5-5.5V24h0C33,21,33,15,29,12z M5.5,2H26c0.6,0,1,0.4,1,1v6.2
			C26.7,9.1,26.4,9,26,9h0V4c0-0.6-0.4-1-1-1H4C3.4,3,3,3.4,3,4v3.9C2.4,7.3,2,6.5,2,5.5C2,3.6,3.6,2,5.5,2z M4,7V6h21v1H4z M25,8v1
			H5.5C5,9,4.5,8.9,4,8.7V8H25z M4,5V4h21v1H4z M27,25.5c0,1.9-1.6,3.5-3.5,3.5h-18C3.6,29,2,27.4,2,25.5V9.7C3,10.5,4.2,11,5.5,11
			H26c0.6,0,1,0.4,1,1v2h-9c-2.8,0-5,2.2-5,5s2.2,5,5,5h9V25.5z M28.3,22H18c-1.7,0-3-1.3-3-3s1.3-3,3-3h9c0.6,0,1.2-0.3,1.6-0.8
			c0.1-0.1,0.2-0.3,0.3-0.5c0,0,0,0,0-0.1c0.7,0.9,1.1,2.1,1.1,3.3C30,19.5,29.4,21,28.3,22z"/>
	</g>
</g>
</svg>
